<svg width="29" height="103" viewBox="0 0 29 103" fill="none" xmlns="http://www.w3.org/2000/svg">
  
  <!-- 1. Top Shape: Rounded Loop / "O" -->
  <g id="top-ring">
    <path fill-rule="evenodd" clip-rule="evenodd" d="M20.8428 0C22.3382 5.09967e-05 23.7043 0.385319 24.9414 1.1543C26.1785 1.92329 27.1643 2.96191 27.8984 4.27051C28.6326 5.56565 28.9999 7.00263 29 8.58105V15.3203C29 16.8989 28.6326 18.3366 27.8984 19.6318C27.1643 20.9269 26.1785 21.9656 24.9414 22.748C23.7043 23.517 22.3381 23.9013 20.8428 23.9014H8.15723C6.64826 23.9013 5.2821 23.517 4.05859 22.748C2.82151 21.9656 1.83571 20.9269 1.10156 19.6318C0.367385 18.3366 0 16.8989 0 15.3203V8.58105C5.67696e-05 7.00263 0.367442 5.56565 1.10156 4.27051C1.83572 2.96191 2.82146 1.92329 4.05859 1.1543C5.28213 0.385319 6.64822 5.06994e-05 8.15723 0H20.8428ZM8.13672 4.27051C7.07645 4.27062 6.17247 4.68904 5.4248 5.52539C4.66351 6.36181 4.2823 7.38042 4.28223 8.58105V15.3203C4.28223 16.5076 4.66344 17.527 5.4248 18.377C6.17245 19.2132 7.0765 19.6317 8.13672 19.6318H20.8633C21.9235 19.6317 22.8345 19.2133 23.5957 18.377C24.3435 17.527 24.7178 16.5076 24.7178 15.3203V8.58105C24.7177 7.38042 24.3434 6.36181 23.5957 5.52539C22.8344 4.689 21.9236 4.27062 20.8633 4.27051H8.13672Z" fill="white"/>
  </g>

  <!-- 2. Upper Horizontal Bar -->
  <g id="upper-bar">
    <path d="M29 33.8584H0V29.5889H29V33.8584Z" fill="white"/>
  </g>

  <!-- 3. Middle Arrow / "V" Shape -->
  <g id="v-shape">
    <path d="M14.0312 59.0215L22.6211 39.9707H28L15.6621 66.9707H12.3066L0 39.9707H5.37891L14.0312 59.0215Z" fill="white"/>
  </g>

  <!-- 4. Lower Horizontal Bar -->
  <g id="lower-bar">
    <path d="M29 76.3799H0V72.1104H29V76.3799Z" fill="white"/>
  </g>

  <!-- 5. Bottom Corner / "L" Shape -->
  <g id="bottom-corner">
    <path d="M29 94.291C29 95.7616 28.6325 97.1111 27.9189 98.3389C27.1848 99.553 26.2059 100.524 24.9824 101.253C23.7452 101.968 22.3783 102.325 20.8828 102.325H0V98.0752H20.8828C21.9433 98.0752 22.8479 97.704 23.5957 96.9619C24.3433 96.2199 24.7178 95.3298 24.7178 94.291V80.0234H29V94.291Z" fill="white"/>
  </g>

</svg>
