<svg width="245" height="49" viewBox="0 0 245 49" fill="none" xmlns="http://www.w3.org/2000/svg">
<path d="M24.5 0C38.031 0 49 10.969 49 24.5C49 38.031 38.031 49 24.5 49C10.969 49 0 38.031 0 24.5C0 10.969 10.969 0 24.5 0ZM24.5 3C12.6259 3 3 12.6259 3 24.5C3 36.3741 12.6259 46 24.5 46C36.3741 46 46 36.3741 46 24.5C46 12.6259 36.3741 3 24.5 3ZM72.3828 14.8359C73.9614 14.8359 75.3981 15.2033 76.6934 15.9375C78.0021 16.6717 79.0415 17.6573 79.8105 18.8945C80.5794 20.118 80.9638 21.4843 80.9639 22.9932V35.6787C80.9638 37.174 80.5794 38.5403 79.8105 39.7773C79.0415 41.0146 78.0021 42.0002 76.6934 42.7344C75.3981 43.4685 73.9614 43.8359 72.3828 43.8359H65.6436C64.065 43.8359 62.6282 43.4685 61.333 42.7344C60.0378 42.0002 58.9984 41.0146 58.2158 39.7773C57.4469 38.5403 57.0626 37.174 57.0625 35.6787V22.9932C57.0626 21.4843 57.4469 20.118 58.2158 18.8945C58.9984 17.6573 60.0378 16.6717 61.333 15.9375C62.6282 15.2034 64.065 14.8359 65.6436 14.8359H72.3828ZM99.8457 26.2773L109.135 14.8359H113.041V43.8359H108.771V22.1572L101.627 30.8857H98.085L90.9209 22.1572V43.8359H86.6504V14.8359H90.5566L99.8457 26.2773ZM122.958 35.7188C122.958 36.7792 123.329 37.6839 124.071 38.4316C124.813 39.1792 125.703 39.5537 126.742 39.5537H141.01V43.8359H126.742C125.272 43.8359 123.922 43.4755 122.694 42.7549C121.48 42.0207 120.509 41.0419 119.78 39.8184C119.065 38.5811 118.708 37.2143 118.708 35.7188V14.8359H122.958V35.7188ZM148.923 43.8359H144.653V14.8359H148.923V43.8359ZM165.559 38.6152L173.958 14.8359H178.512L168.21 43.8359H162.888L152.586 14.8359H157.14L165.559 38.6152ZM186.444 43.8359H182.175V14.8359H186.444V43.8359ZM207.452 14.8359C209.031 14.836 210.468 15.2034 211.763 15.9375C213.071 16.6717 214.11 17.6574 214.879 18.8945C215.648 20.1181 216.033 21.4842 216.033 22.9932V35.6787C216.033 37.1741 215.648 38.5402 214.879 39.7773C214.11 41.0145 213.071 42.0002 211.763 42.7344C210.468 43.4685 209.031 43.8359 207.452 43.8359H200.713C199.134 43.8359 197.697 43.4686 196.401 42.7344C195.106 42.0002 194.068 41.0144 193.285 39.7773C192.516 38.5402 192.132 37.1741 192.132 35.6787V22.9932C192.132 21.4842 192.516 20.118 193.285 18.8945C194.068 17.6574 195.106 16.6717 196.401 15.9375C197.697 15.2033 199.134 14.8359 200.713 14.8359H207.452ZM239.792 37.6162V14.8359H244.062V43.8359H238.518L225.99 21.3623V43.8359H221.72V14.8359H227.265L239.792 37.6162ZM65.6436 19.1182C64.4563 19.1182 63.4379 19.4995 62.5879 20.2607C61.7515 21.0084 61.3331 21.9124 61.333 22.9727V35.6992C61.3331 36.7595 61.7515 37.6704 62.5879 38.4316C63.4378 39.1793 64.4564 39.5537 65.6436 39.5537H72.3828C73.5835 39.5537 74.602 39.1793 75.4385 38.4316C76.2749 37.6704 76.6933 36.7595 76.6934 35.6992V22.9727C76.6933 21.9124 76.2749 21.0084 75.4385 20.2607C74.602 19.4994 73.5835 19.1182 72.3828 19.1182H65.6436ZM200.713 19.1182C199.526 19.1182 198.506 19.4994 197.656 20.2607C196.82 21.0084 196.401 21.9124 196.401 22.9727V35.6992C196.401 36.7595 196.82 37.6704 197.656 38.4316C198.506 39.1794 199.526 39.5537 200.713 39.5537H207.452C208.653 39.5536 209.671 39.1793 210.508 38.4316C211.344 37.6704 211.763 36.7595 211.763 35.6992V22.9727C211.763 21.9124 211.344 21.0084 210.508 20.2607C209.671 19.4994 208.653 19.1182 207.452 19.1182H200.713ZM25.0225 30.4062L31.1582 17H35L26.1865 36H23.791L15 17H18.8418L25.0225 30.4062Z" fill="white"/>
</svg>
